<svg id="Capa_1" enable-background="new 0 0 512 512" height="512" viewBox="0 0 512 512" width="512" xmlns="http://www.w3.org/2000/svg"><g><path d="m256 512c-4.563 0-8.878-2.077-11.724-5.644l-144.722-181.341c-24.794-31.067-39.75-67.767-43.25-106.132-3.28-35.941 3.408-72.435 19.342-105.536s40.285-61.093 70.422-80.948c32.17-21.196 70.184-32.399 109.932-32.399s77.762 11.203 109.933 32.398c30.137 19.855 54.488 47.847 70.422 80.948s22.622 69.595 19.342 105.536c-3.5 38.365-18.456 75.065-43.25 106.132l-144.723 181.342c-2.846 3.567-7.161 5.644-11.724 5.644z" fill="#ff405c"/><path d="m267.724 506.356 144.723-181.342c24.794-31.067 39.75-67.767 43.25-106.132 3.28-35.941-3.408-72.435-19.342-105.536s-40.285-61.093-70.422-80.948c-32.171-21.195-70.185-32.398-109.933-32.398v512c4.563 0 8.878-2.077 11.724-5.644z" fill="#d0004f"/><circle cx="256" cy="200" fill="#f4f1f1" r="110"/><path d="m366 200c0-60.751-49.249-110-110-110v220c60.751 0 110-49.249 110-110z" fill="#dad5d3"/><path d="m256 75c-68.925 0-125 56.075-125 125s56.075 125 125 125 125-56.075 125-125-56.075-125-125-125zm93.812 110h-44.115c-1.081-26.625-5.077-52.407-12.274-72.312 29.413 12.655 51.202 39.751 56.389 72.312zm-93.812 109.283c-2.527-2.518-7.559-10.041-12.074-26.537-4.079-14.899-6.69-33.234-7.58-52.746h39.309c-.89 19.512-3.501 37.848-7.58 52.746-4.516 16.497-9.548 24.019-12.075 26.537zm-19.654-109.283c.89-19.512 3.501-37.848 7.58-52.746 4.516-16.497 9.547-24.019 12.074-26.537 2.527 2.518 7.559 10.041 12.074 26.537 4.079 14.899 6.69 33.234 7.58 52.746zm-17.768-72.312c-7.197 19.906-11.193 45.687-12.274 72.312h-44.115c5.186-32.561 26.975-59.657 56.389-72.312zm-56.39 102.312h44.115c1.081 26.625 5.077 52.407 12.274 72.312-29.413-12.655-51.202-39.751-56.389-72.312zm131.234 72.312c7.197-19.906 11.193-45.687 12.274-72.312h44.115c-5.186 32.561-26.975 59.657-56.389 72.312z" fill="#acceff"/><path d="m268.074 132.254c4.079 14.899 6.69 33.234 7.58 52.746h-19.654v30h19.654c-.89 19.512-3.501 37.848-7.58 52.746-4.516 16.497-9.547 24.019-12.074 26.537v30.717c68.925 0 125-56.075 125-125s-56.075-125-125-125v30.717c2.527 2.518 7.559 10.04 12.074 26.537zm81.738 52.746h-44.115c-1.081-26.625-5.077-52.407-12.274-72.312 29.413 12.655 51.202 39.751 56.389 72.312zm-44.116 30h44.115c-5.187 32.561-26.976 59.657-56.389 72.312 7.198-19.905 11.194-45.687 12.274-72.312z" fill="#4793ff"/></g></svg>